<?xml version="1.0" encoding="utf-8"?>
<!-- Generator: Adobe Illustrator 16.0.0, SVG Export Plug-In . SVG Version: 6.00 Build 0)  -->
<!DOCTYPE svg PUBLIC "-//W3C//DTD SVG 1.1//EN" "http://www.w3.org/Graphics/SVG/1.1/DTD/svg11.dtd">
<svg version="1.1" id="Layer_1" xmlns="http://www.w3.org/2000/svg" xmlns:xlink="http://www.w3.org/1999/xlink" x="0px" y="0px"
	 width="76px" height="22px" viewBox="0 0 76 22" enable-background="new 0 0 76 22" xml:space="preserve">
<path fill-rule="evenodd" clip-rule="evenodd" fill="#5BAF88" d="M11.121,0c5.834,0,10.56,4.925,10.56,11s-4.726,11-10.56,11
	c-5.83,0-10.561-4.925-10.561-11S5.291,0,11.121,0 M64.879,0c-5.83,0-10.56,4.925-10.56,11s4.729,11,10.56,11
	c5.836,0,10.561-4.925,10.561-11S70.715,0,64.879,0 M38,0c-5.83,0-10.561,4.925-10.561,11S32.17,22,38,22
	c5.836,0,10.561-4.925,10.561-11S43.836,0,38,0"/>
</svg>
