<?xml version="1.0" encoding="utf-8"?>
<!-- Generator: Adobe Illustrator 16.0.0, SVG Export Plug-In . SVG Version: 6.00 Build 0)  -->
<!DOCTYPE svg PUBLIC "-//W3C//DTD SVG 1.1//EN" "http://www.w3.org/Graphics/SVG/1.1/DTD/svg11.dtd">
<svg version="1.1" id="Layer_1" xmlns="http://www.w3.org/2000/svg" xmlns:xlink="http://www.w3.org/1999/xlink" x="0px" y="0px"
	 width="70px" height="46px" viewBox="0 0 70 46" enable-background="new 0 0 70 46" xml:space="preserve">
<g>
	<path fill="#5AAE88" d="M19.632,45.916c7.138,0.551,11.276-1.664,15.394-4.689c4.115,3.025,8.516,5.24,15.39,4.689
		c10.708-0.835,19.51-9.614,19.51-21.412c0-7.403-4.139-13.71-8.802-17.036c-2.454-1.883-6.591-4.383-9.613-1.883
		c-0.262,1.071,0,1.619,0.812,1.883c0.566,1.946,3.021,2.212,4.401,3.02c4.4,2.496,8.253,7.446,8.253,14.017
		c0,8.803-6.59,15.912-15.109,16.463c-5.23,0.565-8.254-1.098-11.273-3.565c5.758-5.498,5.492-20.037,0-25.797
		c1.641-1.641,5.492-1.641,6.043-4.664c1.379-0.547,2.474-1.355,4.139-2.474c1.092-0.549,3.83-1.905,3.83-3.022
		c0-1.095-0.811-1.642-1.641-1.379c-2.189,0.832-5.496,3.853-7.709,4.687c-1.928-0.834-4.115,0.525-5.756,1.356
		c-0.551,0.548-2.214,1.928-2.759,1.928c0,0-0.548-0.832-1.075-1.096c-1.662-1.094-3.874-2.474-5.519-2.474
		c-0.808,0-1.091,0.546-1.923,0.546c-0.55,0.265-1.36-0.546-1.905,0.572c-0.569,1.355,0.811,1.619,1.072,1.883
		c0.283,0.568,0.569,1.113,1.093,1.662c1.403,1.095,3.878,1.095,4.972,2.758c-2.757,3.287-4.685,8.759-4.399,14.804
		c0.546,4.401,2.452,8.234,4.399,10.99c-2.757,1.923-4.972,3.024-8.517,3.285c-9.636,0.835-17.056-6.041-17.867-15.108
		c-0.548-7.402,3.285-11.78,7.138-14.539c1.928-1.355,4.686-1.905,5.496-4.115c1.379-1.357,9.066-3.832,6.306-6.569
		c-3.022,0.81-4.927,3.283-7.684,4.378c-3.285-1.095-7.425,2.191-9.33,3.855c-3.568,3.284-6.326,8.496-6.873,14.277
		C-0.709,36.015,9.186,45.348,19.632,45.916L19.632,45.916z M34.741,15.438L34.741,15.438c4.136,3.854,3.853,14.279,0.285,18.39
		C31.172,29.977,31.455,19.556,34.741,15.438L34.741,15.438z"/>
</g>
</svg>
