<?xml version="1.0" encoding="utf-8"?>
<!-- Generator: Adobe Illustrator 16.0.0, SVG Export Plug-In . SVG Version: 6.00 Build 0)  -->
<!DOCTYPE svg PUBLIC "-//W3C//DTD SVG 1.1//EN" "http://www.w3.org/Graphics/SVG/1.1/DTD/svg11.dtd">
<svg version="1.1" id="Layer_1" xmlns="http://www.w3.org/2000/svg" xmlns:xlink="http://www.w3.org/1999/xlink" x="0px" y="0px"
	 width="72px" height="50px" viewBox="0 0 72 50" enable-background="new 0 0 72 50" xml:space="preserve">
<g>
	<path fill-rule="evenodd" clip-rule="evenodd" fill="#5BAF88" d="M71.533,46.923c0,1.676-1.384,3.077-3.077,3.077H3.543
		c-1.667,0-3.076-1.401-3.076-3.077V3.054C0.467,1.387,1.876,0,3.543,0h64.913c1.693,0,3.077,1.387,3.077,3.054V46.923z
		 M62.013,12.84c-3.076,0-5.592-2.225-5.592-5.303c0-0.271,0-0.578,0.288-0.848H15.291c0,0.27,0,0.577,0,0.848
		c0,3.078-2.228,5.303-5.304,5.303c-0.293,0-0.848,0-1.116,0v24.296c0.269,0,0.823,0,1.116,0c3.076,0,5.304,2.249,5.304,5.325
		c0,0.274,0,0.564,0,0.827h41.418c-0.288-0.263-0.288-0.553-0.288-0.827c0-3.076,2.516-5.325,5.592-5.325c0.293,0,0.582,0,1.139,0
		V12.84C62.595,12.84,62.306,12.84,62.013,12.84L62.013,12.84z M34.597,35.486v-2.541c-1.674,0-3.346-0.535-4.193-1.113l0.559-3.077
		c1.14,0.577,2.808,1.112,4.217,1.112c1.379,0,2.494-0.535,2.494-1.379c0-1.116-0.826-1.695-2.494-2.229
		c-2.811-0.843-4.775-2.253-4.775-4.768c0-2.228,1.698-3.901,4.193-4.189v-2.497h2.516v2.227c1.965,0,2.812,0.271,3.929,0.559
		l-0.852,3.077c-0.555-0.288-1.937-0.823-3.632-0.823c-1.671,0-2.23,0.823-2.23,1.374c0,0.852,0.852,1.387,3.077,2.235
		c3.075,0.842,4.191,2.225,4.191,4.766c0,1.938-1.672,3.882-4.483,4.465v2.803H34.597z M51.115,24.831
		c0,8.691-6.712,15.378-15.115,15.378c-8.382,0-15.113-6.687-15.113-15.378c0-8.064,6.731-14.801,15.113-14.801
		C44.403,10.03,51.115,16.767,51.115,24.831L51.115,24.831z M66.496,42.735c0,1.398-1.407,2.786-2.789,2.786H8.293
		c-1.382,0-2.785-1.388-2.785-2.786V7.267c0-1.429,1.403-2.541,2.785-2.541h55.414c1.382,0,2.789,1.112,2.789,2.541V42.735z"/>
</g>
</svg>
